# xmcd CD database file
#
# Track frame offsets:
#	150
#	11913
#	25961
#	40593
#	53326
#	68026
#	80529
#	94324
#	109350
#	123441
#	136299
#	149576
#	163569
#	177685
#	189057
#	203518
#	217168
#	230589
#	242999
#	256465
#
# Disc length: 3603 seconds
#
# Revision: 5
# Processed by: cddbd v1.5.2PL0 Copyright (c) Steve Scherf et al.
# Submitted via: CDex 1.70beta2
#
DISCID=220e1114
DTITLE=Arthur 'Big Boy' Crudup - Crudup's After Hours - Disc 1
DYEAR=1996
DGENRE=Blues
TTITLE0=Mean Old 'Frisco Blues
TTITLE1=Raised To My Hand
TTITLE2=Death Valley Blues
TTITLE3=Gonna Follow My Baby
TTITLE4=Who's Been Follin' You
TTITLE5=Standing At My Window
TTITLE6=If I Get Lucky
TTITLE7=Black Pony Blues
TTITLE8=Kind Lover Blues
TTITLE9=Give Me A 32-20
TTITLE10=Rock Me Mamma
TTITLE11=My Mama Don't Allow Me
TTITLE12=Cool Disposition
TTITLE13=Keep Your Arms Around Me
TTITLE14=That's Your Red Wagon
TTITLE15=I'm In The Mood
TTITLE16=Boy Friend Blues
TTITLE17=No More Lovers
TTITLE18=She's Gone
TTITLE19=Dirt Road Blues
EXTD=YEAR: 1996
EXTT0=
EXTT1=
EXTT2=
EXTT3=
EXTT4=
EXTT5=
EXTT6=
EXTT7=
EXTT8=
EXTT9=
EXTT10=
EXTT11=
EXTT12=
EXTT13=
EXTT14=
EXTT15=
EXTT16=
EXTT17=
EXTT18=
EXTT19=
PLAYORDER=
